<?xml version="1.0" standalone="no"?>
<!DOCTYPE svg PUBLIC "-//W3C//DTD SVG 20010904//EN"
 "http://www.w3.org/TR/2001/REC-SVG-20010904/DTD/svg10.dtd">
<svg version="1.0" xmlns="http://www.w3.org/2000/svg"
 width="500.000000pt" height="500.000000pt" viewBox="0 0 500.000000 500.000000"
 preserveAspectRatio="xMidYMid meet">

<g transform="translate(0.000000,500.000000) scale(0.100000,-0.100000)"
fill="#000000" stroke="none">
<path d="M3374 2745 c-30 -46 13 -99 62 -76 18 8 24 19 24 44 0 18 -5 38 -12
45 -20 20 -56 14 -74 -13z"/>
<path d="M1268 2731 c-16 -13 -44 -21 -78 -23 -65 -4 -76 -22 -21 -39 37 -11
39 -13 29 -35 -7 -15 -20 -24 -35 -24 -12 0 -23 -4 -23 -10 0 -5 7 -10 15 -10
50 0 -43 -79 -160 -136 -119 -58 -239 -88 -322 -81 -97 7 -126 44 -81 102 l21
28 -22 -12 c-12 -7 -29 -28 -39 -47 -15 -32 -15 -38 -1 -62 31 -57 179 -79
304 -47 130 34 219 90 295 187 35 44 38 45 55 30 16 -16 17 -16 11 9 -4 19 0
31 15 45 20 18 21 18 45 -14 34 -43 45 -33 27 27 -10 37 -11 55 -4 70 13 24
14 61 2 61 -4 0 -19 -9 -33 -19z"/>
<path d="M1470 2455 l0 -275 45 0 45 0 0 196 c0 156 3 194 13 186 6 -6 73 -94
147 -196 l135 -185 48 0 47 -1 0 275 0 275 -45 0 -45 0 -2 -197 -3 -198 -147
198 -148 197 -45 0 -45 0 0 -275z"/>
<path d="M2880 2635 c0 -54 0 -55 -30 -55 -27 0 -30 -3 -30 -29 0 -25 4 -30
28 -33 l27 -3 5 -135 c3 -74 9 -143 14 -153 20 -41 99 -59 165 -36 34 12 36
16 22 52 -9 22 -14 24 -54 20 -62 -7 -68 8 -65 144 l3 108 63 3 c61 3 62 3 62
32 l0 30 -65 0 -65 0 0 55 0 55 -40 0 -40 0 0 -55z"/>
<path d="M2125 2585 c-22 -8 -57 -32 -77 -53 -86 -92 -71 -245 30 -316 72 -51
199 -46 268 9 l29 24 -22 22 -23 23 -41 -23 c-78 -44 -181 -11 -204 67 l-7 23
157 -3 157 -3 13 -39 c29 -85 88 -127 186 -134 136 -10 228 74 229 208 0 134
-107 224 -244 205 -81 -10 -139 -53 -169 -123 l-14 -33 -12 40 c-29 99 -143
146 -256 106z m135 -70 c28 -14 60 -60 60 -85 0 -6 -43 -10 -120 -10 -77 0
-120 4 -120 10 0 26 32 68 62 83 42 21 81 21 118 2z m429 -21 c71 -59 58 -189
-23 -228 -119 -57 -229 66 -170 190 21 44 56 63 116 64 36 0 53 -6 77 -26z"/>
<path d="M3120 2391 l0 -211 45 0 45 0 0 120 c0 159 17 191 113 214 24 6 27
11 27 47 0 41 0 41 -32 34 -37 -8 -97 -49 -99 -68 -1 -7 -5 6 -8 28 -6 39 -7
40 -48 43 l-43 3 0 -210z"/>
<path d="M3370 2391 l0 -211 45 0 45 0 -2 208 -3 207 -42 3 -43 3 0 -210z"/>
<path d="M3540 2315 l0 -285 40 0 40 0 0 112 0 112 28 -26 c35 -34 72 -48 128
-48 59 0 103 19 141 63 72 82 69 218 -6 297 -71 75 -193 78 -268 8 l-23 -21 0
36 c0 36 -1 37 -40 37 l-40 0 0 -285z m288 187 c48 -31 65 -111 38 -177 -38
-90 -165 -97 -222 -10 -24 37 -23 118 2 153 45 60 120 74 182 34z"/>
<path d="M4055 2585 c-53 -19 -75 -49 -75 -106 0 -59 30 -89 125 -123 82 -30
102 -49 81 -80 -19 -30 -92 -33 -152 -6 -26 11 -48 19 -49 18 -18 -23 -25 -51
-15 -63 17 -21 98 -45 152 -45 92 0 147 40 155 113 7 60 -26 98 -110 126 -77
26 -107 46 -107 72 0 42 63 47 166 14 16 -5 23 0 33 21 11 25 10 30 -5 41 -46
33 -134 41 -199 18z"/>
</g>
</svg>
